<svg width="177" height="64" viewBox="0 0 177 64" fill="none" xmlns="http://www.w3.org/2000/svg">
<g opacity="0.1" clip-path="url(#clip0_532_41871)">
<g clip-path="url(#clip1_532_41871)">
<path d="M120.936 3.75432L118.342 1.15894L72.4707 47.0307L75.0661 49.6261L120.936 3.75432Z" fill="#F5F3EF"/>
<path d="M149.918 22.5238L152.52 19.9385L132.572 -0.143799L72.4707 59.9657L75.0661 62.5611L132.565 5.05531L149.918 22.5238Z" fill="#F5F3EF"/>
<path d="M143.384 29.0576L145.988 26.4707L132.572 12.969L85.4927 60.0529L88.0881 62.6483L132.565 18.1665L143.384 29.0576Z" fill="#F5F3EF"/>
<path d="M144.247 60.0529L146.843 62.6483L192.713 16.7765L190.118 14.1812L144.247 60.0529Z" fill="#F5F3EF"/>
<path d="M190.118 1.24609L132.619 58.7501L115.266 41.2816L112.664 43.8686L132.612 63.9509L192.713 3.83979L190.118 1.24609Z" fill="#F5F3EF"/>
<path d="M121.799 34.7494L119.196 37.3347L132.612 50.8397L179.691 3.75407L177.095 1.15869L132.619 45.6372L121.799 34.7494Z" fill="#F5F3EF"/>
<path d="M106.113 50.337L118.372 62.5594L120.964 59.9607L108.705 47.7383L106.113 50.337Z" fill="#F5F3EF"/>
<path d="M137.883 34.5651L129.844 26.5493L127.252 29.148L135.291 37.1621L137.883 34.5651Z" fill="#F5F3EF"/>
<path d="M159.055 13.3948L146.798 1.17236L144.206 3.77113L156.463 15.9919L159.055 13.3948Z" fill="#F5F3EF"/>
<path d="M85.9334 21.1923L93.9727 13.1765L96.5647 15.7752L88.5254 23.7893L85.9334 21.1923Z" fill="#F5F3EF"/>
<path d="M168.941 48.4865L176.981 40.4707L179.573 43.0694L171.533 51.0835L168.941 48.4865Z" fill="#F5F3EF"/>
</g>
<g clip-path="url(#clip2_532_41871)">
<path d="M56.0052 3.75432L58.5989 1.15894L104.471 47.0307L101.875 49.6261L56.0052 3.75432Z" fill="#F5F3EF"/>
<path d="M91.102 21.1923L83.0627 13.1765L80.4707 15.7752L88.51 23.7893L91.102 21.1923Z" fill="#F5F3EF"/>
<path d="M27.0235 22.5238L24.4214 19.9385L44.3696 -0.143799L104.471 59.9657L101.875 62.5611L44.3763 5.05531L27.0235 22.5238Z" fill="#F5F3EF"/>
<path d="M33.5572 29.0576L30.9534 26.4707L44.3696 12.969L91.4485 60.0529L88.8531 62.6483L44.3763 18.1665L33.5572 29.0576Z" fill="#F5F3EF"/>
<path d="M32.6936 60.0529L30.0982 62.6483L-15.7718 16.7765L-13.1765 14.1812L32.6936 60.0529Z" fill="#F5F3EF"/>
<path d="M8.04316 48.4865L0.00386962 40.4707L-2.58813 43.0694L5.45115 51.0835L8.04316 48.4865Z" fill="#F5F3EF"/>
<path d="M-13.1765 1.24609L44.3225 58.7501L61.6753 41.2816L64.2773 43.8686L44.3292 63.9509L-15.7719 3.83979L-13.1765 1.24609Z" fill="#F5F3EF"/>
<path d="M55.1418 34.7494L57.7456 37.3347L44.3295 50.8397L-2.74948 3.75407L-0.154101 1.15869L44.3227 45.6372L55.1418 34.7494Z" fill="#F5F3EF"/>
<path d="M70.8281 50.337L58.5688 62.5594L55.9768 59.9607L68.2361 47.7383L70.8281 50.337Z" fill="#F5F3EF"/>
<path d="M39.0582 34.5651L47.0974 26.5493L49.6895 29.148L41.6502 37.1621L39.0582 34.5651Z" fill="#F5F3EF"/>
<path d="M17.886 13.3948L30.1436 1.17236L32.7356 3.77113L20.478 15.9919L17.886 13.3948Z" fill="#F5F3EF"/>
</g>
<g clip-path="url(#clip3_532_41871)">
<path d="M209.635 60.0529L207.039 62.6483L161.169 16.7765L163.765 14.1812L209.635 60.0529Z" fill="#F5F3EF"/>
<path d="M184.984 48.4865L176.945 40.4707L174.353 43.0694L182.392 51.0835L184.984 48.4865Z" fill="#F5F3EF"/>
<path d="M163.765 1.24609L221.264 58.7501L238.616 41.2816L241.219 43.8686L221.27 63.9509L161.169 3.83979L163.765 1.24609Z" fill="#F5F3EF"/>
<path d="M232.083 34.7494L234.687 37.3347L221.27 50.8397L174.191 3.75407L176.787 1.15869L221.264 45.6372L232.083 34.7494Z" fill="#F5F3EF"/>
</g>
</g>
<defs>
<clipPath id="clip0_532_41871">
<rect width="177" height="64" fill="white"/>
</clipPath>
<clipPath id="clip1_532_41871">
<rect width="88.4706" height="64" fill="white" transform="translate(88.4707)"/>
</clipPath>
<clipPath id="clip2_532_41871">
<rect width="88.4706" height="64" fill="white" transform="matrix(-1 0 0 1 88.4707 0)"/>
</clipPath>
<clipPath id="clip3_532_41871">
<rect width="88.4706" height="64" fill="white" transform="matrix(-1 0 0 1 265.412 0)"/>
</clipPath>
</defs>
</svg>
